<svg width="19" height="16" viewBox="0 0 19 16" xmlns="http://www.w3.org/2000/svg"><g fill="#757575" fill-rule="evenodd"><path d="M15.5 5c-.827 0-1.5-.673-1.5-1.5S14.673 2 15.5 2s1.5.673 1.5 1.5S16.327 5 15.5 5zm0-2c-.276 0-.5.224-.5.5s.224.5.5.5.5-.224.5-.5-.224-.5-.5-.5z"/><path d="M17.5 0H14c-.688 0-1.574.367-2.06.854L4.352 8.44c-.283.283-.438.66-.438 1.06 0 .403.156.78.438 1.062l2.602 2.602-1.095.632c-.115.066-.25.083-.38.05-.13-.035-.237-.118-.303-.233L1.58 7.383c-.137-.238-.055-.544.184-.682L9.75 2.09c.24-.138.32-.444.183-.683-.138-.24-.444-.32-.683-.183l-7.986 4.61c-.346.2-.594.524-.698.912-.104.388-.05.792.15 1.138l3.595 6.23c.2.345.524.593.912.697.13.036.262.053.392.053.26 0 .515-.068.746-.2l1.327-.767.752.752c.282.283.658.438 1.06.438s.778-.156 1.06-.438l7.587-7.586c.487-.487.853-1.372.853-2.06V1.5c0-.828-.673-1.5-1.5-1.5V0zm.5 5c0 .415-.267 1.06-.56 1.354L9.852 13.94c-.094.094-.22.145-.354.145-.136 0-.26-.052-.355-.145L5.06 9.854c-.095-.094-.146-.22-.146-.353 0-.133.052-.26.145-.353l7.585-7.586c.293-.292.94-.56 1.353-.56h3.5c.276 0 .5.224.5.5V5H18z"/></g></svg>
