<svg xmlns="http://www.w3.org/2000/svg" viewBox="0 0 47.7 62.1" width="47.7" height="62.1"><path d="M37.8 4.7h-10v5h6.6v9.6c0 .9.8 1.7 1.7 1.7h1.7c.9 0 1.7-.8 1.7-1.7V6.4c0-1-.7-1.7-1.7-1.7z" fill="#AC834A"/><path d="M24.6 62.1c-2.5 0-4.8-1.2-6.1-3.2-.1 0 .1 0 0 0-6.1-9.4-10.9-20.2-13.1-31.7-.2-.8-.3-1.5-.4-2.3v-.2c0-1.6.5-3.1 1.4-4.3.4-.5.8-.9 1.2-1.4 4.3-4.4 10.4-7.1 17-7.1v50.2z" fill="#D7674A"/><path d="M24.6 62.1c2.5 0 4.8-1.2 6.1-3.2.1 0-.1 0 0 0 6.1-9.5 10.9-20.3 13.1-31.7.2-.8.3-1.5.4-2.3v-.2c0-1.6-.5-3.1-1.4-4.3-.4-.5-.8-.9-1.2-1.4-4.3-4.4-10.4-7.1-17.1-7.1v50.2z" fill="#7E4543"/><path d="M28.9 6.5V2c0-1.1-.9-2-2-2h-1.3v6.5h3.3z" fill="#AC834A"/><path d="M22.6 6.5V2c0-1.1.9-2 2-2h1.3v6.5h-3.3z" fill="#E1BC59"/><path d="M28.9 2.6V2c0-1.1-.9-2-2-2h-1.3v2.6h3.3z" fill="#D2BA87"/><path d="M22.6 2.6V2c0-1.1.9-2 2-2h1.3v2.6h-3.3z" fill="#FFF"/><path d="M37.6 6.5V2c0-1.1-.9-2-2-2h-1.3v6.5h3.3z" fill="#AC834A"/><path d="M31.3 6.5V2c0-1.1.9-2 2-2h1.3v6.5h-3.3z" fill="#E1BC59"/><path fill="#4F3929" d="M34.5 20.3h5V40h-5z"/><path d="M30.6 23.4v2c0 1.1.9 2 2 2h13.2c1.1 0 2-.9 2-2v-2H30.6z" fill="#AC834A"/><path d="M34.5 9.7v9.6c0 .9.8 1.7 1.7 1.7h1.7c.9 0 1.7-.8 1.7-1.7V6.4c0-.4-.1-.7-.3-1l-4.8 4.3z" fill="#7C583D"/><path d="M39.1 5.4c.1.1.2.3.2.5-.2-.6-.8-1.1-1.6-1.1H19.9c-.9 0-1.7.8-1.7 1.7v8.6c0 .9.7 1.7 1.7 1.7h1.7c.9 0 1.7-.7 1.7-1.7l-.6-5.8 11.9-.8 4.5-3.1z" fill="#AC834A"/><path d="M47.7 23.7v-2c0-1.1-.9-2-2-2H32.6c-1.1 0-2 .9-2 2v2h17.1z" fill="#E1BC59"/><path d="M47.7 38.6v-2c0-1.1-.9-2-2-2H32.6c-1.1 0-2 .9-2 2v2h17.1z" fill="#AC834A"/><path d="M40 38.3l-3.7-3.7h-2.1l-.5 3.7h-3.2v2c0 1.1.9 2 2 2h.7l-.3 2.4 1.3-2.4h11.5c1.1 0 2-.9 2-2v-2H40z" fill="#674C34"/><path d="M24.6 28.2l-8.9-8.9L8.1 21 5 24.6V24.9c.1.8.3 1.5.4 2.3.9 4.7 2.3 9.4 4 13.8l2.3 3.7 13 13V28.2z" fill="#974C46"/><path d="M28.9 46.5c4.5 0 8.1-3.6 8.1-8.1s-3.6-8.1-8.1-8.1v16.2z" fill="#AC834A"/><path d="M28.8 30.4c-4.5 0-8.1 3.6-8.1 8.1s3.6 8.1 8.1 8.1V30.4z" fill="#E1BC59"/><circle cx="28.9" cy="38.5" r="5.7" fill="#4F3929"/><path d="M28.9 43c2.5 0 4.5-2 4.5-4.5s-2-4.5-4.5-4.5v9z" fill="#51B09A"/><path d="M28.9 34c-2.5 0-4.5 2-4.5 4.5s2 4.5 4.5 4.5v-9z" fill="#7AC2D3"/><path d="M10.6 29.9c-1.9 0-3.4-1.5-3.4-3.4s1.5-3.4 3.4-3.4v-5.3H9.2l-.9-1.9c-1.2.3-2.4.8-3.4 1.4l.7 2-2 2-2-.7C.9 21.6.4 22.8.2 24l1.9 1v2.8l-1.9 1c.3 1.2.8 2.4 1.4 3.4l2-.7 2 2-.7 2c1 .7 2.2 1.1 3.4 1.4l.9-1.9h1.4v-5.1z" fill="#F1DEAD"/><path d="M10.6 23.1c1.9 0 3.4 1.5 3.4 3.4s-1.5 3.4-3.4 3.4v5.3H12l.9 1.9c1.2-.3 2.4-.8 3.4-1.4l-.7-2 2-2 2 .7c.7-1 1.2-2.2 1.4-3.4l-1.9-1v-3l1.9-1c-.3-1.2-.8-2.4-1.4-3.4l-2 .7-2-2 .7-2c-1-.7-2.2-1.1-3.4-1.4l-.9 1.9h-1.4v5.3z" fill="#E1BC59"/><path d="M12.8 45.6c-1.1 0-1.9-.9-1.9-1.9 0-1.1.9-1.9 1.9-1.9v-3H12l-.5-1.1c-.7.2-1.4.4-2 .8l.4 1.2-1.1 1.1-1.2-.4c-.4.6-.7 1.3-.8 2l1.1.5v1.6l-1.1.5c.2.7.4 1.4.8 2l1.2-.4 1.1 1.1-.4 1.2c.6.4 1.3.7 2 .8l.5-1.1h.8v-3z" fill="#F1DEAD"/><path d="M12.8 41.7c1.1 0 1.9.9 1.9 1.9 0 1.1-.9 1.9-1.9 1.9v3h.8l.5 1.1c.7-.2 1.4-.4 2-.8l-.4-1.2 1.1-1.1 1.2.5c.4-.6.7-1.3.8-2l-1.1-.5v-1.6l1.1-.5c-.2-.7-.4-1.4-.8-2l-1.2.4-1.1-1.1.4-1.2c-.6-.4-1.3-.7-2-.8l-.5 1.1h-.8v2.9z" fill="#E1BC59"/><circle cx="10.6" cy="26.5" r="3.8" fill="#4F3929"/><circle cx="10.6" cy="26.5" r="2.2" fill="#B58F4B"/><circle cx="12.8" cy="43.6" r="2.2" fill="#4F3929"/><path d="M20.7 16.8h.8c.9 0 1.7-.7 1.7-1.7V9.7h11.2l3.8-2.5H20.7v9.6z" fill="#7C583D"/><path d="M37.6 2.6V2c0-1.1-.9-2-2-2h-1.3v2.6h3.3z" fill="#D2BA87"/><path d="M31.3 2.6V2c0-1.1.9-2 2-2h1.3v2.6h-3.3z" fill="#FFF"/></svg>
